<svg width="117" height="28" viewBox="0 0 117 28" fill="none" xmlns="http://www.w3.org/2000/svg">
<path d="M15.0551 22.4674L14.4874 27.08H0.0112047L3.20448 1.23215H8.98786L6.36228 22.4674H15.0551ZM41.7328 12.4973C41.7328 13.8929 41.5672 15.2293 41.2361 16.5067C40.9168 17.784 40.4555 18.9726 39.8523 20.0725C39.261 21.1724 38.5395 22.1718 37.688 23.0706C36.8483 23.9695 35.9021 24.7382 34.8495 25.3769C33.7969 26.0037 32.6556 26.4945 31.4256 26.8493C30.1956 27.1923 28.9006 27.3638 27.5405 27.3638C25.8374 27.3638 24.3058 27.0681 22.9457 26.4768C21.5974 25.8736 20.4502 25.0575 19.5041 24.0286C18.5579 22.9878 17.8305 21.7697 17.322 20.3741C16.8253 18.9667 16.5769 17.4528 16.5769 15.8325C16.5769 14.4369 16.7366 13.1005 17.0559 11.8232C17.387 10.534 17.8483 9.33952 18.4396 8.23962C19.0428 7.13971 19.7702 6.14033 20.6217 5.24148C21.4732 4.34263 22.4253 3.5798 23.4779 2.95297C24.5305 2.31431 25.6718 1.82349 26.9018 1.48051C28.1318 1.1257 29.4328 0.948298 30.8047 0.948298C32.496 0.948298 34.0157 1.24989 35.364 1.85306C36.7241 2.44441 37.8713 3.26047 38.8057 4.30124C39.7518 5.34201 40.4733 6.5661 40.97 7.97351C41.4785 9.38092 41.7328 10.8889 41.7328 12.4973ZM35.8075 12.6392C35.8075 11.5748 35.6774 10.6109 35.4172 9.74755C35.1689 8.87236 34.7963 8.12726 34.2996 7.51226C33.8147 6.88543 33.2174 6.40644 32.5078 6.07528C31.7982 5.7323 30.9939 5.56081 30.0951 5.56081C28.9124 5.56081 27.8539 5.80918 26.9196 6.30591C25.9852 6.79081 25.1869 7.47678 24.5246 8.3638C23.8741 9.25082 23.3715 10.3212 23.0167 11.5748C22.6737 12.8166 22.5022 14.1945 22.5022 15.7083C22.5022 16.7728 22.6264 17.7367 22.8747 18.6C23.1231 19.4634 23.4838 20.2026 23.9569 20.8176C24.4418 21.4326 25.0391 21.9116 25.7487 22.2546C26.4583 22.5857 27.2685 22.7513 28.1791 22.7513C29.3618 22.7513 30.4203 22.5088 31.3547 22.0239C32.3008 21.539 33.0991 20.8531 33.7496 19.966C34.4119 19.079 34.9205 18.0146 35.2753 16.7728C35.6301 15.5309 35.8075 14.1531 35.8075 12.6392ZM66.845 12.4973C66.845 13.9047 66.6853 15.2412 66.366 16.5067C66.0466 17.7603 65.5913 18.9312 65 20.0193C64.4086 21.0955 63.6872 22.0712 62.8356 22.9464C61.9959 23.8098 61.0498 24.549 59.9972 25.164C58.9564 25.779 57.8151 26.2521 56.5732 26.5832C55.3432 26.9144 54.0482 27.08 52.6881 27.08H43.3921L46.5854 1.23215H55.8814C57.5726 1.23215 59.0924 1.52191 60.4407 2.10142C61.8008 2.66912 62.9539 3.45561 63.9 4.4609C64.8462 5.46619 65.5736 6.6548 66.0821 8.02673C66.5907 9.39866 66.845 10.8889 66.845 12.4973ZM60.9197 12.6392C60.9197 11.5866 60.7955 10.6346 60.5471 9.78303C60.3106 8.91967 59.9498 8.18639 59.4649 7.58322C58.9919 6.98004 58.4064 6.51288 57.7086 6.18172C57.0108 5.85057 56.2125 5.68499 55.3137 5.68499H51.8366L49.7787 22.6271H53.2558C54.4385 22.6271 55.5029 22.3965 56.4491 21.9352C57.3952 21.4622 58.1995 20.7939 58.8618 19.9306C59.5241 19.0672 60.0326 18.0205 60.3874 16.7905C60.7423 15.5605 60.9197 14.1767 60.9197 12.6392ZM81.6044 13.7924H90.2263L88.878 24.5963C88.2157 25.0812 87.5297 25.5011 86.8201 25.8559C86.1105 26.1988 85.3654 26.4827 84.5848 26.7074C83.8161 26.9321 83 27.0977 82.1367 27.2041C81.2851 27.3106 80.3744 27.3638 79.4046 27.3638C77.808 27.3638 76.3474 27.074 75.0227 26.4945C73.7099 25.9032 72.5805 25.093 71.6343 24.0641C70.7 23.0351 69.9726 21.817 69.4522 20.4096C68.9437 19.0021 68.6894 17.4765 68.6894 15.8325C68.6894 14.4015 68.8491 13.0414 69.1684 11.7522C69.4996 10.4513 69.9667 9.25082 70.5699 8.15091C71.1731 7.05101 71.8945 6.05754 72.7342 5.17052C73.5858 4.2835 74.526 3.52657 75.555 2.89975C76.5957 2.27292 77.7134 1.79393 78.9079 1.46277C80.1024 1.11979 81.3561 0.948298 82.6689 0.948298C83.7688 0.948298 84.7622 1.04883 85.6493 1.24988C86.5481 1.45094 87.3523 1.72296 88.062 2.06594C88.7716 2.3971 89.4043 2.78739 89.9602 3.23681C90.5161 3.67441 91.0069 4.12975 91.4326 4.60283L89.5522 6.92682C89.2447 7.34077 88.878 7.59505 88.4522 7.68966C88.0265 7.77245 87.5889 7.67192 87.1395 7.38808C86.7255 7.10423 86.3352 6.86178 85.9686 6.66072C85.602 6.44783 85.2294 6.27634 84.8509 6.14624C84.4725 6.00432 84.0704 5.90379 83.6446 5.84466C83.2306 5.7737 82.7635 5.73821 82.2431 5.73821C81.1195 5.73821 80.0906 5.98067 79.1563 6.46557C78.2219 6.93865 77.4177 7.61279 76.7436 8.48798C76.0694 9.35135 75.5431 10.3921 75.1647 11.6103C74.798 12.8285 74.6147 14.1708 74.6147 15.6374C74.6147 16.7728 74.7507 17.7958 75.0227 18.7065C75.3066 19.6053 75.7028 20.3682 76.2113 20.995C76.7199 21.61 77.329 22.0831 78.0386 22.4142C78.7482 22.7454 79.5347 22.911 80.3981 22.911C81.1077 22.911 81.7464 22.8518 82.3141 22.7335C82.8818 22.6035 83.4258 22.426 83.9462 22.2013L84.4429 17.9791H82.2431C81.8883 17.9791 81.6163 17.8904 81.427 17.713C81.2496 17.5238 81.1787 17.2813 81.2142 16.9856L81.6044 13.7924ZM116.653 1.23215L113.459 27.08H110.443C109.994 27.08 109.627 27.009 109.344 26.8671C109.072 26.7133 108.811 26.465 108.563 26.122L99.5331 10.1556C99.4976 10.8415 99.4444 11.4565 99.3734 12.0006L97.5994 27.08H92.4901L95.6834 1.23215H98.7348C98.9831 1.23215 99.1901 1.24397 99.3557 1.26763C99.5331 1.27945 99.6868 1.32085 99.8169 1.39181C99.947 1.45094 100.065 1.53964 100.172 1.65791C100.278 1.77618 100.391 1.92993 100.509 2.11917L109.574 18.0856C109.61 17.6716 109.645 17.2754 109.681 16.8969C109.716 16.5185 109.757 16.1637 109.805 15.8325L111.543 1.23215H116.653Z" fill="#323232"/>
</svg>
