<svg width="105" height="95" viewBox="0 0 105 95" fill="none" xmlns="http://www.w3.org/2000/svg">
<path d="M13.1195 73.6701L10.7672 87H9.02686L10.0978 80.9183H3.3277L2.23759 87H0.497242L2.8687 73.6701H4.60905L3.55719 79.5605H10.3465L11.3792 73.6701H13.1195ZM18.138 87.1721C17.2582 87.1721 16.4805 86.9936 15.8048 86.6366C15.1418 86.2669 14.6254 85.7569 14.2557 85.1067C13.8859 84.4437 13.7011 83.6787 13.7011 82.8117C13.7011 81.626 13.9752 80.5422 14.5234 79.5605C15.0717 78.566 15.8239 77.7819 16.7801 77.2082C17.7491 76.6344 18.8265 76.3475 20.0122 76.3475C20.8919 76.3475 21.6697 76.5324 22.3454 76.9022C23.0339 77.2592 23.563 77.7691 23.9328 78.4321C24.3153 79.0824 24.5065 79.8474 24.5065 80.7271C24.5065 81.9128 24.226 82.9966 23.665 83.9783C23.104 84.96 22.339 85.7378 21.3701 86.3115C20.4011 86.8853 19.3237 87.1721 18.138 87.1721ZM18.3484 85.6995C19.1771 85.6995 19.923 85.4764 20.5859 85.0302C21.2489 84.5712 21.7653 83.9719 22.135 83.2324C22.5175 82.4802 22.7088 81.677 22.7088 80.8227C22.7088 79.8537 22.4283 79.1142 21.8673 78.6043C21.3063 78.0815 20.6051 77.8201 19.7636 77.8201C18.9348 77.8201 18.1954 78.0496 17.5451 78.5086C16.8949 78.9549 16.3913 79.5541 16.0343 80.3064C15.6773 81.0586 15.4988 81.8682 15.4988 82.7352C15.4988 83.6787 15.7665 84.4118 16.302 84.9345C16.8375 85.4445 17.5196 85.6995 18.3484 85.6995ZM29.8165 72.8477L27.3111 87H25.5708L28.0761 72.8477H29.8165ZM33.1268 74.8176C32.8463 74.8176 32.6105 74.7283 32.4192 74.5498C32.2407 74.3586 32.1515 74.1227 32.1515 73.8422C32.1515 73.4597 32.2917 73.1346 32.5722 72.8668C32.8527 72.5864 33.1778 72.4461 33.5476 72.4461C33.8408 72.4461 34.0767 72.5354 34.2552 72.7138C34.4337 72.8923 34.5229 73.1282 34.5229 73.4215C34.5229 73.804 34.3827 74.1355 34.1022 74.4159C33.8217 74.6837 33.4966 74.8176 33.1268 74.8176ZM33.6814 76.5197L31.8263 87H30.086L31.9411 76.5197H33.6814ZM34.869 81.7216C35.0602 80.6506 35.4427 79.7135 36.0164 78.9103C36.6029 78.0943 37.3169 77.4631 38.1584 77.0169C38.9999 76.5707 39.8924 76.3475 40.8359 76.3475C41.6391 76.3475 42.3595 76.5388 42.997 76.9213C43.6344 77.291 44.0871 77.7819 44.3548 78.3939L45.3302 72.8477H47.0896L44.5843 87H42.8248L43.1882 85.0302C42.742 85.6549 42.1427 86.1713 41.3905 86.5793C40.6382 86.9745 39.8095 87.1721 38.9043 87.1721C38.0883 87.1721 37.3679 87 36.7432 86.6558C36.1184 86.2988 35.6276 85.7951 35.2706 85.1449C34.9263 84.4947 34.7542 83.7424 34.7542 82.8882C34.7542 82.5057 34.7925 82.1168 34.869 81.7216ZM43.7619 81.7407C43.8129 81.473 43.8384 81.1861 43.8384 80.8801C43.8384 79.9494 43.5579 79.2162 42.997 78.6808C42.4487 78.1325 41.7475 77.8584 40.8932 77.8584C40.243 77.8584 39.6183 78.0114 39.019 78.3174C38.4325 78.6234 37.9289 79.0696 37.5082 79.6561C37.0874 80.2426 36.8069 80.9311 36.6667 81.7216C36.6157 81.9893 36.5902 82.2826 36.5902 82.6013C36.5902 83.5448 36.8643 84.2907 37.4125 84.8389C37.9608 85.3744 38.662 85.6421 39.5163 85.6421C40.1665 85.6421 40.7849 85.4891 41.3714 85.1832C41.9706 84.8644 42.4806 84.4118 42.9013 83.8253C43.3348 83.2261 43.6217 82.5312 43.7619 81.7407ZM47.6018 81.7216C47.7931 80.6506 48.1756 79.7135 48.7493 78.9103C49.3358 78.0943 50.0434 77.4631 50.8721 77.0169C51.7136 76.5707 52.6061 76.3475 53.5496 76.3475C54.4676 76.3475 55.2262 76.5452 55.8254 76.9404C56.4247 77.3357 56.8391 77.8329 57.0685 78.4321L57.4128 76.5197H59.1723L57.3172 87H55.5577L55.9211 85.0493C55.4621 85.6613 54.8565 86.1713 54.1042 86.5793C53.352 86.9745 52.5232 87.1721 51.618 87.1721C50.802 87.1721 50.0817 87 49.4569 86.6558C48.8322 86.2988 48.3477 85.7951 48.0034 85.1449C47.6592 84.4947 47.4871 83.7424 47.4871 82.8882C47.4871 82.5057 47.5253 82.1168 47.6018 81.7216ZM56.4948 81.7407C56.5458 81.473 56.5713 81.1861 56.5713 80.8801C56.5713 79.9494 56.2908 79.2162 55.7298 78.6808C55.1816 78.1325 54.4803 77.8584 53.6261 77.8584C52.9759 77.8584 52.3511 78.0114 51.7519 78.3174C51.1654 78.6234 50.6618 79.0696 50.241 79.6561C49.8203 80.2426 49.5398 80.9311 49.3995 81.7216C49.3485 81.9893 49.323 82.2826 49.323 82.6013C49.323 83.5448 49.5972 84.2907 50.1454 84.8389C50.6936 85.3744 51.3949 85.6421 52.2491 85.6421C52.8994 85.6421 53.5177 85.4891 54.1042 85.1832C54.7035 84.8644 55.2135 84.4118 55.6342 83.8253C56.0677 83.2261 56.3546 82.5312 56.4948 81.7407ZM62.6105 76.5197L64.3891 84.9728L69.1512 76.5197H70.9489L61.922 91.9342H60.1052L63.0695 86.8853L60.6789 76.5197H62.6105ZM80.2689 73.6701L77.8974 87H76.1571L78.5286 73.6701H80.2689ZM87.672 76.3284C88.7557 76.3284 89.6227 76.6217 90.2729 77.2082C90.9232 77.7819 91.2483 78.6234 91.2483 79.7326C91.2483 80.1406 91.2164 80.504 91.1526 80.8227L90.0625 87H88.3413L89.3932 81.0713C89.4442 80.8036 89.4697 80.5231 89.4697 80.2299C89.4697 79.4521 89.2529 78.8593 88.8194 78.4513C88.3987 78.0433 87.8058 77.8393 87.0408 77.8393C86.1229 77.8393 85.3387 78.1261 84.6885 78.6999C84.051 79.2736 83.6366 80.1087 83.4454 81.2052V81.167L82.4127 87H80.6723L82.5274 76.5197H84.2678L84 78.0305C84.4335 77.4823 84.9754 77.0615 85.6256 76.7683C86.2759 76.475 86.958 76.3284 87.672 76.3284ZM99.7138 76.3284C100.798 76.3284 101.665 76.6217 102.315 77.2082C102.965 77.7819 103.29 78.6234 103.29 79.7326C103.29 80.1406 103.258 80.504 103.194 80.8227L102.104 87H100.383L101.435 81.0713C101.486 80.8036 101.512 80.5231 101.512 80.2299C101.512 79.4521 101.295 78.8593 100.861 78.4513C100.441 78.0433 99.8477 77.8393 99.0827 77.8393C98.1647 77.8393 97.3806 78.1261 96.7303 78.6999C96.0928 79.2736 95.6785 80.1087 95.4872 81.2052V81.167L94.4545 87H92.7141L94.5692 76.5197H96.3096L96.0418 78.0305C96.4753 77.4823 97.0172 77.0615 97.6674 76.7683C98.3177 76.475 98.9998 76.3284 99.7138 76.3284Z" fill="#85C371"/>
<path d="M47.0189 6.56303C44.7547 9.38375 39.5925 21.9731 37.0566 49.7647M63.3208 3C59.5472 8.04762 51.7283 25.7143 50.6415 56M28 36.8487C33.1321 30.3165 49.917 17.6084 76 19.0336" stroke="#85C371" stroke-width="5" stroke-linecap="round"/>
</svg>
